<svg version="1.1" xmlns="http://www.w3.org/2000/svg" xmlns:xlink="http://www.w3.org/1999/xlink" width="75.54878" height="90.61796" viewBox="0,0,75.54878,90.61796"><g transform="translate(-201.95565,-132.05534)"><g data-paper-data="{&quot;isPaintingLayer&quot;:true}" fill-rule="nonzero" stroke-linecap="butt" stroke-linejoin="miter" stroke-miterlimit="10" stroke-dasharray="" stroke-dashoffset="0" style="mix-blend-mode: normal"><g fill="#ffffff" stroke="#ffffff" stroke-width="0.69834"><path d="M273.05739,217.86591c0.01856,0.95452 -0.31502,1.86898 -0.89264,2.44461c-0.30759,0.30694 -0.64735,0.47217 -0.95763,0.4656c-2.5258,-0.25824 -9.19747,-1.54989 -9.69073,-2.52578c-0.00766,-0.03415 -0.01535,-0.10522 -0.01708,-0.19391c-0.00949,-0.48801 0.16743,-1.48683 0.3726,-2.64254c0.313,-1.75711 0.70087,-3.93837 0.66926,-5.56377c-0.00997,-0.51251 -0.06237,-0.94447 -0.15627,-1.2828c-0.63785,-2.30584 -3.60908,-6.00307 -4.19853,-6.72004c-0.48612,-0.64437 -0.73321,-1.20738 -0.74291,-1.70588c-0.02355,-1.21077 1.41155,-1.54873 1.4269,-1.55183l0.0007,-0.00002c0.19625,0.10861 4.33259,2.44214 5.25383,6.85876c0.22332,1.06856 0.35137,2.33511 0.37917,3.76504c0.04694,2.41445 -0.19984,4.73748 -0.35104,5.90684l-0.13423,1.03841l1.01023,-0.27529c3.23708,-0.8815 6.94554,-1.25886 7.64685,0.3242c0.24324,0.54497 0.37072,1.10341 0.38151,1.6584v0z"/><path d="M258.14312,200.1271c0.00655,0.33653 0.20844,0.7719 0.59857,1.29441c0.63744,0.77766 3.64689,4.53695 4.3171,6.95878c0.11111,0.40081 0.16998,0.87676 0.18123,1.45555c0.03294,1.69388 -0.3619,3.91288 -0.67921,5.69528c-0.17631,0.99382 -0.34309,1.93303 -0.36186,2.40279c1.20801,0.84748 6.69916,1.87712 9.04903,2.14088c0.08639,-0.01148 0.23947,-0.07597 0.42315,-0.25898c0.43918,-0.43742 0.7021,-1.17947 0.68739,-1.93633c-0.00898,-0.46221 -0.11729,-0.92939 -0.32041,-1.39133c-0.35138,-0.79292 -2.80897,-1.02528 -6.82416,0.06838l-2.02118,0.55059l0.26837,-2.07691c0.14878,-1.14971 0.39144,-3.43286 0.34536,-5.80261c-0.02697,-1.38734 -0.14987,-2.61008 -0.36404,-3.63541c-0.73179,-3.51093 -3.75334,-5.6649 -4.65364,-6.23761c-0.26462,0.11477 -0.65382,0.35488 -0.6457,0.7725M258.14312,200.1271v0l-1.39643,0.02715v0c-0.02758,-1.41813 1.2781,-2.09025 1.97209,-2.24697l0.25941,-0.05885l0.23154,0.12823c0.18856,0.10396 4.61361,2.5945 5.60032,7.32841c0.23329,1.11308 0.36497,2.42286 0.39358,3.89398c0,0 -0.00001,0 0.00001,0.0007c0.0468,2.40675 -0.18854,4.70646 -0.35675,6.00887c2.40334,-0.65435 7.40595,-1.6848 8.46891,0.7154c0.27841,0.6302 0.42643,1.27835 0.43907,1.92833c0.02218,1.14088 -0.38794,2.24477 -1.09712,2.95219c-0.44329,0.4423 -0.96395,0.68017 -1.46567,0.66892c-0.09575,-0.00164 -9.88627,-1.26544 -10.34526,-3.02996c-0.02787,-0.10628 -0.04286,-0.22891 -0.04568,-0.37419c-0.01083,-0.5572 0.16349,-1.53977 0.38446,-2.7832c0.30734,-1.7242 0.68819,-3.87031 0.658,-5.42311c-0.00884,-0.45451 -0.05242,-0.82874 -0.13052,-1.11077c-0.64089,-2.31838 -4.03571,-6.42715 -4.06932,-6.46841c-0.59719,-0.79084 -0.88441,-1.47888 -0.89706,-2.12956z"/></g><path d="M261.51321,183.24239c-0.81365,-0.28243 -3.41268,-0.46444 -3.41268,-0.46444l-1.9975,-5.41769c0,0 6.58115,0.94144 9.02291,4.85571c2.44393,3.91273 3.30652,8.11685 3.30652,8.11685c0,0 5.03897,-6.31085 7.77979,-3.5123c2.74214,2.79922 -4.84262,7.50426 -5.89705,7.51846c-1.05442,0.0142 -2.97418,0.35398 -4.01036,-3.43608c-1.03481,-3.7914 -1.81638,-6.62734 -4.79163,-7.66049z" fill="#ffffff" stroke="#ffffff" stroke-width="1.39667"/><path d="M253.05596,163.11701v0v0c0,0 1.55993,-3.93827 5.45032,-6.09611c3.8919,-2.15707 8.39479,-3.56408 8.39479,-3.56408c0,0 0.61629,-6.19966 2.35904,-7.5977c1.74417,-1.39727 5.76544,-0.27553 4.8886,2.18968c-0.87684,2.46521 -2.63653,7.51857 -3.82246,7.9195c-1.18581,0.40233 -6.74511,0.71857 -9.76432,3.0312c-3.01706,2.31549 -7.44832,7.08204 -7.44832,7.08204z" fill="#ffffff" stroke="#ffffff" stroke-width="1.39667"/><path d="M221.79707,202.54575c0,0 -3.34864,4.37183 -3.93956,6.88669c-0.59232,2.51479 1.44886,8.70268 1.23973,9.66012c-0.21045,0.95607 -8.48476,2.81568 -9.58077,2.8824c-1.09519,0.06741 -2.63003,-2.02825 -1.64655,-4.50804c0.98269,-2.47907 8.66867,-0.3585 8.66867,-0.3585c0,0 -1.30347,-6.21974 -0.54519,-10.72423c0.75962,-4.50732 4.98392,-7.05853 4.98392,-7.05853" fill="#ffffff" stroke="#ffffff" stroke-width="1.39667"/><path d="M217.74548,184.09343v0c-2.93364,1.14805 -3.60358,4.01221 -4.49161,7.841c-0.88736,3.82747 -2.81897,3.56258 -3.87385,3.58939c-1.05478,0.02681 -8.81601,-4.37984 -6.18476,-7.28354c2.63126,-2.903 7.91045,3.20722 7.91045,3.20722c0,0 0.69921,-4.23449 2.98709,-8.23923c2.28915,-4.00626 8.82872,-5.20282 8.82872,-5.20282l-1.78538,5.49125c0,0 -2.58929,0.28289 -3.39064,0.59673z" fill="#ffffff" stroke="#ffffff" stroke-width="1.39667"/><path d="M225.41468,163.65447l0.05765,2.96454c0,0 -4.61182,-4.59071 -7.71941,-6.78711c-3.10683,-2.19351 -8.67422,-2.2934 -9.87477,-2.64933c-1.20062,-0.35452 -3.15543,-5.33567 -4.12884,-7.7649c-0.97203,-2.42996 3.00401,-3.7065 4.80048,-2.37807c1.79788,1.3292 2.65331,7.50024 2.65331,7.50024c0,0 4.55558,1.23087 8.5277,3.23503c3.97201,2.00426 5.68388,5.87961 5.68388,5.87961v0z" fill="#ffffff" stroke="#ffffff" stroke-width="1.39667"/><path d="M228.90296,154.8956c0,0 -5.3929,-1.97453 -9.16891,-6.03809c-2.42411,-2.61057 -4.15731,-6.5029 -4.30908,-7.05526c-0.15114,-0.55096 -10.18293,1.22399 -9.89501,1.01656c4.33451,-3.13306 11.88756,-3.86243 11.88756,-3.86243c0,0 0.8956,4.17337 4.77567,9.09757c3.87857,4.92423 8.15452,4.73627 8.15452,4.73627l-1.44474,2.10539z" fill="#ffffff" stroke="#ffffff" stroke-width="1.39667"/><path d="M249.22912,154.50037v0l-1.5255,-2.04763c0,0 4.27853,0.02163 7.96424,-5.04969c3.68431,-5.07128 4.417,-9.27632 4.417,-9.27632c0,0 7.57569,0.4352 12.03012,3.39737c0.29437,0.19611 -9.79674,-1.18757 -9.92635,-0.63114c-0.13238,0.55788 -1.71425,4.51468 -4.03375,7.21748c-3.61379,4.20725 -8.92576,6.38993 -8.92576,6.38993z" fill="#ffffff" stroke="#ffffff" stroke-width="1.39667"/><g fill="#ffffff" stroke="#ffffff" stroke-width="0.69834"><path d="M246.0346,171.72103v0c3.06304,-1.06185 5.79559,-0.37594 7.01933,0.05635c0.79027,3.24645 2.45286,6.59966 3.49964,10.11208c4.7987,16.06865 -3.99643,36.14673 -15.58699,37.24936l-0.79984,-41.13483c0.00859,-0.12929 0.37846,-4.38318 5.86786,-6.28296z"/><path d="M239.26419,219.16632v0c-11.59015,-0.77973 -21.38007,-20.54114 -16.90939,-36.61399c1.01184,-3.63906 2.58064,-7.08581 3.29518,-10.35182c1.32071,-0.47547 3.84498,-1.08266 6.70681,-0.21353c5.64264,1.71193 6.10792,6.0627 6.10792,6.0627z"/><path d="M238.84235,150.73988v0c7.54278,-0.14667 13.54399,6.57044 13.76387,17.8786c0.00516,0.26535 0.02016,0.53251 0.04418,0.801c-1.27713,-0.30833 -3.68942,-0.58199 -7.01054,0.39547c-3.69955,1.08822 -5.50493,3.53929 -6.37785,5.48613c-0.94804,-1.91143 -2.84585,-4.29049 -6.5843,-5.23409c-3.2906,-0.83219 -5.50646,-0.56135 -6.67826,-0.26202c0.02087,-0.32586 0.03343,-0.65228 0.02713,-0.97631c-0.21105,-10.85425 5.27449,-17.94213 12.81577,-18.08877z"/><path d="M224.33858,167.65105v0c-0.22664,-11.6558 6.36036,-19.28129 14.45883,-19.43876c8.09777,-0.15745 15.24275,7.0404 15.47885,19.18281c0.08817,4.53424 2.74459,9.24679 4.24018,14.25226c5.27089,17.64847 -5.42587,39.82681 -18.28964,40.07694c-12.86367,0.25012 -24.75932,-21.62725 -19.83443,-39.33424c1.46893,-5.28036 4.03485,-10.18036 3.94621,-14.739zM252.65041,169.41948v0c-0.02472,-0.26847 -0.03901,-0.53494 -0.0442,-0.80169c-0.21986,-11.30747 -6.22108,-18.02457 -13.76386,-17.8779c-7.54128,0.14664 -13.02682,7.23452 -12.81576,18.08877c0.00627,0.32264 -0.00629,0.64905 -0.02713,0.97631c1.1718,-0.29934 3.38768,-0.56877 6.67826,0.26202c3.73775,0.94361 5.63626,3.32266 6.5843,5.23409c0.87362,-1.94685 2.6783,-4.3979 6.37785,-5.48613c3.32112,-0.97745 5.73341,-0.7038 7.01054,-0.39547zM222.35482,182.55373v0c-4.47071,16.07145 5.31922,35.83287 16.90937,36.61259l-0.79946,-41.11523c0,0 -0.46529,-4.35218 -6.10793,-6.0634c-2.86183,-0.86843 -5.38612,-0.26264 -6.70682,0.21353c-0.71383,3.26669 -2.28334,6.71206 -3.29516,10.35252zM256.55357,181.88946v0c-1.04748,-3.5124 -2.71008,-6.86561 -3.50177,-10.11344c-1.22161,-0.43094 -3.95619,-1.1182 -7.0172,-0.05499c-5.48941,1.89978 -5.85787,6.15364 -5.86786,6.28296l0.79984,41.13483c11.59055,-1.10263 20.38569,-21.18001 15.58699,-37.24936z"/></g><g fill="#ffffff" stroke="#ffffff" stroke-width="0.69834"><g><path d="M237.78272,158.2432c0.00254,0.13057 -0.00405,0.25993 -0.02105,0.38878c-0.09903,0.76607 -0.54998,1.49277 -1.23735,1.99514c-0.70176,0.51304 -1.55439,0.73566 -2.4017,0.62501c-1.57975,-0.20323 -2.84157,-1.55475 -2.87115,-3.07606c-0.00252,-0.12987 0.00469,-0.25784 0.0211,-0.38599c0.09961,-0.76678 0.55135,-1.4943 1.23933,-1.99587c0.7019,-0.51094 1.55388,-0.73154 2.40049,-0.62088c1.57975,0.20333 2.84082,1.55266 2.87033,3.06988v0z"/><path d="M231.94965,158.16249c0.02142,1.10169 0.96674,2.23023 2.26283,2.39716c1.40962,0.18283 2.7036,-0.83422 2.85661,-2.01832c0.01217,-0.09456 0.01735,-0.18818 0.01547,-0.28456c-0.02147,-1.10389 -0.9659,-2.22334 -2.26282,-2.39156c-1.40811,-0.18216 -2.70299,0.82921 -2.85667,2.01471c-0.01209,0.09315 -0.01726,0.18758 -0.01541,0.28256M231.94965,158.16249v0l-1.39643,0.02715v0c-0.00322,-0.16547 0.0062,-0.32918 0.02611,-0.4888c0.12324,-0.95577 0.67773,-1.85643 1.52006,-2.47001c0.84717,-0.61639 1.87708,-0.88366 2.90159,-0.74925c1.91508,0.24771 3.44322,1.89642 3.47925,3.74947c0.00321,0.16477 -0.00538,0.33047 -0.02676,0.49081c-0.12318,0.95378 -0.67637,1.855 -1.51788,2.46927c-0.84712,0.61928 -1.8784,0.88799 -2.90078,0.75494c-1.91576,-0.24711 -3.44544,-1.89718 -3.48158,-3.75643z"/></g><path d="M233.28833,156.82121c-0.00657,-0.33793 0.13346,-0.64662 0.3651,-0.87317c0.23105,-0.22593 0.55371,-0.36983 0.91324,-0.37682c0.35963,-0.00699 0.68765,0.12426 0.9273,0.34104c0.24027,0.21737 0.39209,0.52038 0.39866,0.85831c0.00657,0.33793 -0.13335,0.64662 -0.36499,0.87316c-0.23105,0.22593 -0.55372,0.36983 -0.91335,0.37683c-0.35953,0.00699 -0.68755,-0.12426 -0.92721,-0.34104c-0.24027,-0.21737 -0.39219,-0.52038 -0.39876,-0.85831z"/></g><g fill="#ffffff" stroke="#ffffff" stroke-width="0.69834"><g><path d="M247.26607,158.0043c0.00254,0.13057 -0.00474,0.25994 -0.02104,0.38878c-0.09963,0.76608 -0.55067,1.49358 -1.23804,1.99515c-0.70246,0.51306 -1.55439,0.73565 -2.401,0.62499c-1.57975,-0.20323 -2.84156,-1.55465 -2.87115,-3.07606c-0.00252,-0.12987 0.00539,-0.25785 0.0211,-0.38598c0.09961,-0.76678 0.55066,-1.49429 1.23944,-1.99588c0.70182,-0.51024 1.55308,-0.73143 2.39969,-0.62077c1.58045,0.20322 2.84152,1.55255 2.87102,3.06977v0z"/><path d="M241.4323,157.9236c0.02142,1.10179 0.96744,2.23021 2.26354,2.39784c1.40821,0.18216 2.70228,-0.83489 2.85659,-2.01891c0.01146,-0.09454 0.01665,-0.18826 0.01477,-0.28464c-0.02147,-1.10379 -0.96521,-2.22325 -2.26343,-2.39155c-1.40821,-0.18216 -2.70239,0.82929 -2.85667,2.01482c-0.01149,0.09304 -0.01665,0.18746 -0.01481,0.28244M241.4323,157.9236v0l-1.39643,0.02715v0c-0.00322,-0.16547 0.0062,-0.32908 0.0275,-0.48873c0.12326,-0.95517 0.67703,-1.85651 1.51936,-2.47c0.84787,-0.6165 1.87777,-0.88378 2.90228,-0.74937c1.91438,0.24773 3.44332,1.89642 3.47935,3.74947c0.00321,0.16477 -0.00617,0.33048 -0.02756,0.49093c-0.12319,0.95368 -0.67565,1.85569 -1.51787,2.46988c-0.84784,0.6186 -1.8777,0.88727 -2.90078,0.75423c-1.91576,-0.24701 -3.44612,-1.89636 -3.48228,-3.75641z"/></g><path d="M242.77108,156.58232c-0.00657,-0.33793 0.13335,-0.64651 0.36499,-0.87316c0.23105,-0.22593 0.55372,-0.36984 0.91335,-0.37683c0.35953,-0.00699 0.68755,0.12426 0.9272,0.34104c0.24027,0.21747 0.39219,0.52038 0.39876,0.85831c0.00657,0.33793 -0.13345,0.64661 -0.36509,0.87326c-0.23105,0.22583 -0.55372,0.36974 -0.91325,0.37673c-0.35963,0.00699 -0.68765,-0.12426 -0.9273,-0.34094c-0.24027,-0.21747 -0.39209,-0.52048 -0.39866,-0.85841z"/></g><text transform="translate(227.60886,188.9218) scale(1.30728,1.30728)" font-size="40" xml:space="preserve" fill="#000000" fill-rule="nonzero" stroke="none" stroke-width="1" stroke-linecap="butt" stroke-linejoin="miter" stroke-miterlimit="10" stroke-dasharray="" stroke-dashoffset="0" font-family="Sans Serif" font-weight="normal" text-anchor="start" style="mix-blend-mode: normal"><tspan x="0" dy="0">?</tspan></text><text transform="translate(231.99419,206.18352) scale(0.5,0.5)" font-size="40" xml:space="preserve" fill="#ff0000" fill-rule="nonzero" stroke="none" stroke-width="1" stroke-linecap="butt" stroke-linejoin="miter" stroke-miterlimit="10" stroke-dasharray="" stroke-dashoffset="0" font-family="Sans Serif" font-weight="normal" text-anchor="start" style="mix-blend-mode: normal"><tspan x="0" dy="0">✖︎</tspan></text></g></g></svg>