<svg version="1.1" xmlns="http://www.w3.org/2000/svg" xmlns:xlink="http://www.w3.org/1999/xlink" width="87.75" height="91.44846" viewBox="0,0,87.75,91.44846"><g transform="translate(-194.74974,-138.33389)"><g data-paper-data="{&quot;isPaintingLayer&quot;:true}" fill-rule="nonzero" stroke="none" stroke-linecap="butt" stroke-linejoin="miter" stroke-miterlimit="10" stroke-dasharray="" stroke-dashoffset="0" style="mix-blend-mode: normal"><path d="M211.95563,229.78235c-9.50255,0 -17.20588,-9.41552 -17.20588,-21.03015v-27.6897c0,-11.61463 7.70334,-21.03015 17.20588,-21.03015c0,0 11.05804,-48.82153 11.7637,0c0.12807,8.86091 20.4147,0 26.04388,0c3.07152,0 14.56869,-14.78399 17.62044,-14.78399c3.21738,0 -2.08978,14.78399 -2.08978,14.78399c9.50255,0 17.20588,9.41552 17.20588,21.03015v27.6897c0,11.61463 -7.70334,21.03015 -17.20588,21.03015z" fill="#48c04b" stroke-width="0"/><path d="M219.38072,222.57363c-9.25393,0 -16.75573,-9.36148 -16.75573,-20.90946v-13.47498c0,-11.54797 7.50179,-20.90946 16.75573,-20.90946h39.65522c9.25393,0 16.75573,9.36148 16.75573,20.90946v13.47498c0,11.54797 -7.50179,20.90946 -16.75573,20.90946z" fill="#ffffff" stroke-width="0"/><path d="M246.21138,190.60118c0,-3.31419 2.68894,-6.00168 6.00535,-6.00168c3.3163,0 6.0038,2.68749 6.0038,6.00168c0,3.3163 -2.68816,6.00746 -6.0038,6.00746c-3.31719,-0.00144 -6.00535,-2.69116 -6.00535,-6.00746z" data-paper-data="{&quot;index&quot;:null}" fill="#000000" stroke-width="0.66342"/><path d="M216.29809,191.27906c0,-3.31419 2.68894,-6.00168 6.00535,-6.00168c3.31631,0 6.0038,2.68749 6.0038,6.00168c0,3.31631 -2.68817,6.00746 -6.0038,6.00746c-3.31719,-0.00144 -6.00535,-2.69116 -6.00535,-6.00746z" data-paper-data="{&quot;index&quot;:null}" fill="#000000" stroke-width="0.66342"/></g></g></svg>